{"title":"Gattaca.1997.BRRip.x264.AC3[5.1]-VLiS","uid":4995602,"size":1317461270,"categoryP":"video","categoryS":"movies","magnet":"?xt=urn:btih:3026951826148eed2ca1a36c7313eccab9a4e4bd&amp;dn=Gattaca.1997.BRRip.x264.AC3%5B5.1%5D-VLiS&amp;tr=udp%3A%2F%2Ftracker.openbittorrent.com%3A80&amp;tr=udp%3A%2F%2Fopen.demonii.com%3A1337&amp;tr=udp%3A%2F%2Ftracker.coppersurfer.tk%3A6969&amp;tr=udp%3A%2F%2Fexodus.desync.com%3A6969","seeders":2,"leechers":1,"uploader":"VLiS","files":-1,"time":1247261303,"description":"                     Gattaca.1997.BRRip.x264.AC3[5.1]-VLiS\n\n                     &lt;a href=&quot; http://www.imdb.com/title/tt0119177/&quot; rel=&quot;nofollow&quot; target=&quot;_NEW&quot;&gt; http://www.imdb.com/title/tt0119177/&lt;/a&gt;\n\n\nMovie Title: Gattaca\n\nDirector: Andrew Niccol\n\nCast: Ethan Hawke, Uma Thurman, Jude Law, Gore Vidal\n\n\n\nThis is a BRRip of the film in MKV format (Matroska container). You will need VLC Player to view the movie.\n\nFor even better results, and in order to enable H.264 playback in Windows Media Player the following software is suggested:\n\nCoreAVC\nHaali Media Splitter\nCoreAAC Directshow filter\nVobSub &amp; VSFilter (For the Subtitles)\n\nRecommended Codec Pack: CCCP - Combined Community Codec Pack \n\n\nxxxxxxxxxxxxxxxxxxxxxxxxxxxxxxxxxxxxxxxxxxxxxxxxxxxxxxxxxxxxxxxxxxxxxxxxxxxxxxxxxxx\n\nLanguage: English\n\nOptional Subtitles [Included in the Matroska Container]:\nEnglish, Spanish, French, German, Dutch, Portuguese, Greek, Swedish, Danish, Turkish, Romanian, Hungarian\n\nxxxxxxxxxxxxxxxxxxxxxxxxxxxxxxxxxxxxxxxxxxxxxxxxxxxxxxxxxxxxxxxxxxxxxxxxxxxxxxxxxxx\n\nGeneral\nFormat                           : Matroska\nFile size                        : 1.23 GiB\nDuration                         : 1h 46mn\nOverall bit rate                 : 1 650 Kbps\n\nVideo\nID                               : 1\nFormat                           : AVC\nFormat/Info                      : Advanced Video Codec\nFormat profile                   : &lt;a class=&quot;__cf_email__&quot; href=&quot;/cdn-cgi/l/email-protection&quot; data-cfemail=&quot;5119383639111d627f60&quot;&gt;[email&amp;#160;protected]&lt;/a&gt;&lt;script cf-hash='f9e31' type=&quot;text/javascript&quot;&gt;\n/* &lt;![CDATA[ */!function(){try{var t=&quot;currentScript&quot;in document?document.currentScript:function(){for(var t=document.getElementsByTagName(&quot;script&quot;),e=t.length;e--;)if(t[e].getAttribute(&quot;cf-hash&quot;))return t[e]}();if(t&amp;&amp;t.previousSibling){var e,r,n,i,c=t.previousSibling,a=c.getAttribute(&quot;data-cfemail&quot;);if(a){for(e=&quot;&quot;,r=parseInt(a.substr(0,2),16),n=2;a.length-n;n+=2)i=parseInt(a.substr(n,2),16)^r,e+=String.fromCharCode(i);e=document.createTextNode(e),c.parentNode.replaceChild(e,c)}}}catch(u){}}();/* ]]&gt; */&lt;/script&gt;\nFormat settings, CABAC           : Yes\nFormat settings, ReFrames        : 6 frames\nMuxing mode                      : Container profile=&lt;a class=&quot;__cf_email__&quot; href=&quot;/cdn-cgi/l/email-protection&quot; data-cfemail=&quot;bbeed5d0d5d4ccd5fb88958a&quot;&gt;[email&amp;#160;protected]&lt;/a&gt;&lt;script cf-hash='f9e31' type=&quot;text/javascript&quot;&gt;\n/* &lt;![CDATA[ */!function(){try{var t=&quot;currentScript&quot;in document?document.currentScript:function(){for(var t=document.getElementsByTagName(&quot;script&quot;),e=t.length;e--;)if(t[e].getAttribute(&quot;cf-hash&quot;))return t[e]}();if(t&amp;&amp;t.previousSibling){var e,r,n,i,c=t.previousSibling,a=c.getAttribute(&quot;data-cfemail&quot;);if(a){for(e=&quot;&quot;,r=parseInt(a.substr(0,2),16),n=2;a.length-n;n+=2)i=parseInt(a.substr(n,2),16)^r,e+=String.fromCharCode(i);e=document.createTextNode(e),c.parentNode.replaceChild(e,c)}}}catch(u){}}();/* ]]&gt; */&lt;/script&gt;\nCodec ID                         : V_MPEG4/ISO/AVC\nDuration                         : 1h 46mn\nBit rate                         : 1 169 Kbps\nNominal bit rate                 : 1 200 Kbps\nWidth                            : 720 pixels\nHeight                           : 304 pixels\nDisplay aspect ratio             : 2.35\nFrame rate                       : 23.976 fps\nResolution                       : 24 bits\nColorimetry                      : 4:2:0\nScan type                        : Progressive\nBits/(Pixel*Frame)               : 0.223\nStream size                      : 889 MiB (71%)\nWriting library                  : x264 core 67 r1173M f6d3166\n\nAudio\nID                               : 2\nFormat                           : AC-3\nFormat/Info                      : Audio Coding 3\nCodec ID                         : A_AC3\nDuration                         : 1h 46mn\nBit rate mode                    : Constant\nBit rate                         : 448 Kbps\nChannel(s)                       : 6 channels\nChannel positions                : Front: L C R, Surround: L R, LFE\nSampling rate                    : 48.0 KHz\nStream size                      : 341 MiB (27%)\nLanguage                         : English\n\n\nSource: Gattaca.1997.720p.BluRay.x264-ESiR\n\n\nScreenshots: &lt;a href=&quot;\nhttp://i556.photobucket.com/albums/ss5/VLiS-/GTC/1.png&quot; rel=&quot;nofollow&quot; target=&quot;_NEW&quot;&gt;\nhttp://i556.photobucket.com/albums/ss5/VLiS-/GTC/1.png&lt;/a&gt; &lt;a href=&quot;\nhttp://i556.photobucket.com/albums/ss5/VLiS-/GTC/2.png&quot; rel=&quot;nofollow&quot; target=&quot;_NEW&quot;&gt;\nhttp://i556.photobucket.com/albums/ss5/VLiS-/GTC/2.png&lt;/a&gt; &lt;a href=&quot;\nhttp://i556.photobucket.com/albums/ss5/VLiS-/GTC/3.png&quot; rel=&quot;nofollow&quot; target=&quot;_NEW&quot;&gt;\nhttp://i556.photobucket.com/albums/ss5/VLiS-/GTC/3.png&lt;/a&gt; &lt;a href=&quot;\nhttp://i556.photobucket.com/albums/ss5/VLiS-/GTC/4.png&quot; rel=&quot;nofollow&quot; target=&quot;_NEW&quot;&gt;\nhttp://i556.photobucket.com/albums/ss5/VLiS-/GTC/4.png&lt;/a&gt; &lt;a href=&quot;\nhttp://i556.photobucket.com/albums/ss5/VLiS-/GTC/5.png&quot; rel=&quot;nofollow&quot; target=&quot;_NEW&quot;&gt;\nhttp://i556.photobucket.com/albums/ss5/VLiS-/GTC/5.png&lt;/a&gt;\n\nInstructions using the subtitle streams\n\n----------------------------------------\n Viewing the subtitles with VLC Player:\n----------------------------------------\n\nVideo--&gt;Subtitles Track--&gt;Select\n\nSubtitle Screenshot for VLC Player: &lt;a href=&quot;\nhttp://img35.picoodle.com/img/img35/2/7/10/asterastrip/f_1m_e5bb929.jpg&quot; rel=&quot;nofollow&quot; target=&quot;_NEW&quot;&gt;\nhttp://img35.picoodle.com/img/img35/2/7/10/asterastrip/f_1m_e5bb929.jpg&lt;/a&gt;\n\n-------------------------------------------------\n Viewing the subtitles with Haali Media Splitter\n-------------------------------------------------\n\nRight click on Haali tray icon--&gt;Select subtitles\n\n**NOTE**\nVobSub &amp; VSFilter must be installed\n\nSubtitle Screenshot for Haali Media Splitter: &lt;a href=&quot;\nhttp://img28.picoodle.com/img/img28/2/6/24/asterastrip/f_2m_d3e4146.jpg&quot; rel=&quot;nofollow&quot; target=&quot;_NEW&quot;&gt;\nhttp://img28.picoodle.com/img/img28/2/6/24/asterastrip/f_2m_d3e4146.jpg&lt;/a&gt;\n\n\n\n\n                                Encoded By VLiS","torrent":{"xt":"urn:btih:3026951826148eed2ca1a36c7313eccab9a4e4bd","amp;dn":"Gattaca.1997.BRRip.x264.AC3%5B5.1%5D-VLiS","amp;tr":["udp%3A%2F%2Ftracker.openbittorrent.com%3A80","udp%3A%2F%2Fopen.demonii.com%3A1337","udp%3A%2F%2Ftracker.coppersurfer.tk%3A6969","udp%3A%2F%2Fexodus.desync.com%3A6969"],"infoHash":"3026951826148eed2ca1a36c7313eccab9a4e4bd","infoHashBuffer":{"type":"Buffer","data":[48,38,149,24,38,20,142,237,44,161,163,108,115,19,236,202,185,164,228,189]},"announce":[],"urlList":[]}}